<svg width="19" height="19" viewBox="0 0 19 19" fill="none" xmlns="http://www.w3.org/2000/svg">
<g clip-path="url(#clip0_5_19)">
<path d="M4.35626e-06 12.54V16.53C4.35626e-06 16.782 0.100093 17.0236 0.278253 17.2018C0.456412 17.3799 0.698049 17.48 0.950004 17.48H2.28V9.88C1.62724 9.93626 1.02264 10.2465 0.596253 10.7439C0.169866 11.2414 -0.0442354 11.8863 4.35626e-06 12.54ZM16.72 9.88V17.48H18.05C18.302 17.48 18.5436 17.3799 18.7218 17.2018C18.8999 17.0236 19 16.782 19 16.53V12.54C19.0442 11.8863 18.8301 11.2414 18.4038 10.7439C17.9774 10.2465 17.3728 9.93626 16.72 9.88ZM6.08 14.44V19H12.92V14.44H6.08ZM12.73 12.16H6.27C6.21961 12.16 6.17129 12.18 6.13565 12.2156C6.10002 12.2513 6.08 12.2996 6.08 12.35V13.68H12.92V12.35C12.92 12.2996 12.9 12.2513 12.8644 12.2156C12.8287 12.18 12.7804 12.16 12.73 12.16ZM12.16 3.1768V2.7208C12.16 2.01532 11.8798 1.33874 11.3809 0.839896C10.8821 0.341049 10.2055 0.0608001 9.5 0.0608001C8.79453 0.0608001 8.11795 0.341049 7.6191 0.839896C7.12025 1.33874 6.84 2.01532 6.84 2.7208V3.1768C5.7593 3.4345 4.79678 4.04843 4.10745 4.91974C3.41813 5.79104 3.04213 6.869 3.04 7.98V18.05C3.04 18.302 3.14009 18.5436 3.31825 18.7218C3.49641 18.8999 3.73805 19 3.99 19H5.32V12.35C5.32 12.098 5.42009 11.8564 5.59825 11.6782C5.77641 11.5001 6.01805 11.4 6.27 11.4H12.73C12.982 11.4 13.2236 11.5001 13.4018 11.6782C13.5799 11.8564 13.68 12.098 13.68 12.35V19H15.01C15.262 19 15.5036 18.8999 15.6818 18.7218C15.8599 18.5436 15.96 18.302 15.96 18.05V7.98C15.9579 6.869 15.5819 5.79104 14.8926 4.91974C14.2032 4.04843 13.2407 3.4345 12.16 3.1768ZM7.6 2.7208C7.6 2.21689 7.80018 1.73362 8.1565 1.3773C8.51282 1.02098 8.99609 0.8208 9.5 0.8208C10.0039 0.8208 10.4872 1.02098 10.8435 1.3773C11.1998 1.73362 11.4 2.21689 11.4 2.7208V3.04H7.6V2.7208ZM12.16 8.17C12.16 8.29476 12.1354 8.41829 12.0877 8.53355C12.0399 8.64881 11.97 8.75354 11.8818 8.84175C11.7935 8.92997 11.6888 8.99994 11.5736 9.04769C11.4583 9.09543 11.3348 9.12 11.21 9.12H7.79C7.66525 9.12 7.54171 9.09543 7.42645 9.04769C7.3112 8.99994 7.20647 8.92997 7.11825 8.84175C7.03004 8.75354 6.96006 8.64881 6.91232 8.53355C6.86458 8.41829 6.84 8.29476 6.84 8.17V7.03C6.84 6.77804 6.94009 6.53641 7.11825 6.35825C7.29641 6.18009 7.53805 6.08 7.79 6.08H11.21C11.462 6.08 11.7036 6.18009 11.8818 6.35825C12.0599 6.53641 12.16 6.77804 12.16 7.03V8.17ZM11.21 6.84H7.79C7.73961 6.84 7.69129 6.86002 7.65565 6.89565C7.62002 6.93128 7.6 6.97961 7.6 7.03V8.17C7.6 8.22039 7.62002 8.26872 7.65565 8.30435C7.69129 8.33998 7.73961 8.36 7.79 8.36H11.21C11.2604 8.36 11.3087 8.33998 11.3444 8.30435C11.38 8.26872 11.4 8.22039 11.4 8.17V7.03C11.4 6.97961 11.38 6.93128 11.3444 6.89565C11.3087 6.86002 11.2604 6.84 11.21 6.84Z" fill="white"/>
</g>
<defs>
<clipPath id="clip0_5_19">
<rect width="19" height="19" fill="white"/>
</clipPath>
</defs>
</svg>
