<svg width="23" height="22" viewBox="0 0 23 22" fill="none" xmlns="http://www.w3.org/2000/svg">
<g clip-path="url(#clip0_6_114)">
<path d="M10.4219 16.5C6.68439 16.5 3.16251 18.0812 0.862511 20.9C0.718761 21.1062 0.646886 21.3812 0.790636 21.6562C0.934386 21.9313 1.15001 22 1.43751 22H19.4063C19.6938 22 19.9094 21.8625 20.0531 21.5875C20.1969 21.3125 20.125 21.0375 19.9813 20.8312C17.6813 18.0812 14.1594 16.5 10.4219 16.5Z" fill="#999999"/>
<path d="M21.6344 3.91875C19.4781 2.75 17.1781 2.68125 15.1656 3.64375C14.0875 4.19375 13.225 4.95 12.5781 5.98125C12.3625 4.5375 11.7156 3.3 10.6375 2.3375C8.9844 0.893751 6.61252 0.412501 4.16877 1.1C3.95315 1.16875 3.73752 1.30625 3.66565 1.58125C3.59377 1.85625 3.66565 2.0625 3.88127 2.26875L5.75002 3.91875C5.8219 3.9875 5.96565 4.05625 6.03752 4.05625L6.54065 4.19375C6.54065 4.2625 6.54065 4.33125 6.54065 4.33125C6.54065 4.5375 6.61252 4.675 6.75627 4.8125L7.5469 5.5C7.40315 5.5 7.2594 5.5 7.04377 5.5C4.81565 5.5 2.80315 6.6 1.43752 8.525C1.29377 8.73125 1.29377 9.00625 1.43752 9.2125C1.65315 9.4875 1.86877 9.625 2.15627 9.625H4.74377C4.88752 9.625 4.9594 9.625 5.03127 9.55625L5.5344 9.28125C5.67815 9.4875 5.89377 9.625 6.18127 9.625H10.9969C11.5 11.4813 11.3563 13.4063 10.4938 15.125C12.2188 15.125 13.9438 15.4688 15.525 16.0875C15.8125 13.8875 15.3813 11.6188 14.1594 9.625L13.7281 8.9375L14.8781 8.3875C14.95 8.31875 15.0938 8.25 15.0938 8.18125L15.4531 7.76875C15.6688 7.90625 15.8844 7.90625 16.1719 7.76875L21.5625 5.15625C21.7781 5.01875 21.9219 4.8125 21.9219 4.5375C21.9938 4.2625 21.85 4.05625 21.6344 3.91875Z" fill="#999999"/>
</g>
<defs>
<clipPath id="clip0_6_114">
<rect width="23" height="22" fill="white"/>
</clipPath>
</defs>
</svg>
